<?xml version="1.0" encoding="utf-8"?>
<!-- Generator: Adobe Illustrator 22.1.0, SVG Export Plug-In . SVG Version: 6.00 Build 0)  -->
<svg version="1.1" id="Layer_1" xmlns="http://www.w3.org/2000/svg" xmlns:xlink="http://www.w3.org/1999/xlink" x="0px" y="0px"
	 viewBox="0 0 1337.2 255.9" style="enable-background:new 0 0 1337.2 255.9;" xml:space="preserve">
<style type="text/css">
	.st0{fill:#33C377;}
	.st1{fill:#EDF0FD;}
	.st2{fill:none;}
	.st3{fill:#269561;}
</style>
<title>osm-for-environment</title>
<path d="M386.7,136.8c0,44-35.9,77.7-79.9,77.7s-79.5-33.6-79.5-77.6s35.4-77.7,79.5-77.7S386.7,92.7,386.7,136.8z M258.9,136.8
	c0,29.1,20.2,49.3,48.1,49.3c27.5,0,48.1-20.2,48.1-49.3c0-28.8-20.7-49.3-48.1-49.3C279.1,87.5,258.9,107.9,258.9,136.8
	L258.9,136.8z"/>
<path d="M509.6,87.5l-20.9,16.1c-7.2-10.9-16.3-17.2-28.6-17.2c-10,0-18.6,4.5-18.6,14.5c0,8.6,6.6,12.3,17.5,17.3l17,7.5
	c23.6,10.4,37,22.5,37,43.8c0,27.9-22.7,45-52.5,45c-25.9,0-46.8-13.2-57.9-33.1l21.2-16c8.2,11.4,18.8,21.8,36.8,21.8
	c13.2,0,21.4-6.1,21.4-16.6c0-9.8-7.3-13.2-19.1-18.6l-16.2-7.3c-21.3-9.8-36.3-22-36.3-43.1c0-25.9,21.6-42.5,49.7-42.5
	C484,59.1,500.8,71.2,509.6,87.5z"/>
<path d="M682.7,59.1v152.6h-30.6v-79.9L614.4,179h-10l-37.7-47.2v79.9h-30.6V59.1h10l63.3,81.1l63.3-81.1H682.7z"/>
<path d="M881.7,89.6h-70.2V120H863v26.1h-51.5V184h72.9v27.7H780.8V61.8h100.9V89.6z"/>
<path d="M1008.7,144.9v66.8h-28.2v-10.9c-8,8.4-19.8,13.6-34.3,13.6c-24.5,0-38.8-14.5-38.8-33.6c0-20.4,16.6-32.7,42.5-32.7H978v-5
	c0-12.3-7-19.8-20.9-19.8c-12,0-20.4,5.7-29.7,15.4L911.5,120c13.2-15.7,29.3-23.2,49-23.2C989.2,96.8,1008.7,112.9,1008.7,144.9z
	 M978,169.7v-1.4H954c-10,0-15.7,3.9-15.7,11.4c0,7.7,6.6,12.3,16.1,12.3C967.4,191.9,978,182.9,978,169.7L978,169.7z"/>
<path d="M1101.7,99.3v27h-8.2c-17.7,0-30.2,9.1-30.2,29.3v56.1h-30.6V99.3h28.2v13.4c7.4-9.5,18.8-14.9,30.8-14.8
	C1095.1,97.9,1098.5,98.3,1101.7,99.3z"/>
<path d="M1209.6,186.1v25.7c-6.9,1.8-14,2.7-21.1,2.7c-27.7,0-45-13.4-45-42.2v-47h-17.7V99.3h17.7V70.9h30.7v28.4h31.8v25.9h-31.8
	v44.3c0,12.9,6.8,17.5,20.9,17.5C1198.7,187,1203.7,186.5,1209.6,186.1z"/>
<path d="M1337.2,142v69.7h-30.5v-65.4c0-13.2-8.4-21.8-20.9-21.8s-21.3,8.9-21.3,21.8v65.4h-30.7V41.4h30.7v67.4
	c7.5-7.5,18.2-12,30.9-12C1321,96.8,1337.2,115,1337.2,142z"/>
<path class="st0" d="M79.9,0c-3.5,0-7,0.2-10.4,0.6c-43,5-73.9,44-68.9,87c1.3,11.1,4.9,21.8,10.7,31.3l50.6,78
	c0,0,8,14.5,17.9,14.5s16.1-10.8,18.2-14.5l50.6-77.9c22.3-37.2,10.3-85.4-26.8-107.8c-9.6-5.8-20.3-9.4-31.4-10.7
	C86.8,0.2,83.3,0,79.9,0z"/>
<ellipse class="st1" cx="79.9" cy="247.9" rx="47.4" ry="7.9"/>
<path class="st2" d="M79.9,0c-3.5,0-7,0.2-10.4,0.6c-43,5-73.9,44-68.9,87c1.3,11.1,4.9,21.8,10.7,31.3l50.6,78
	c0,0,8,14.5,17.9,14.5s16.1-10.8,18.2-14.5l50.6-77.9c22.3-37.2,10.3-85.4-26.8-107.8c-9.6-5.8-20.3-9.4-31.4-10.7
	C86.8,0.2,83.3,0,79.9,0z"/>
<path class="st2" d="M121.6,11.2C112,5.5,101.3,1.9,90.2,0.6c-2.5-0.3-4.9-0.5-7.4-0.5v38.1l42,42c1.1,1.2,1.1,3.1-0.1,4.2
	c-0.5,0.5-1.2,0.8-2,0.8c-0.8,0-1.5-0.3-2.1-0.9L82.8,46.5v38.7l0,0l25.9,25.9c1.1,1.2,1.1,3.1-0.1,4.2c-0.5,0.5-1.2,0.8-2,0.8
	c-0.8,0-1.5-0.3-2.1-0.9L82.8,93.6v36.1l15,15c1.3,1,1.6,2.8,0.7,4.2c-1,1.3-2.8,1.6-4.2,0.7c-0.3-0.2-0.5-0.4-0.7-0.7L82.8,138
	v38.8c-0.3,1.6-1.8,2.8-3.4,2.5c-1.3-0.2-2.3-1.2-2.5-2.5V138l-10.8,10.8c-1,1.3-2.9,1.6-4.2,0.6s-1.6-2.9-0.6-4.2
	c0.2-0.2,0.4-0.5,0.6-0.6l15-15V93.6l-21.7,21.7c-1.3,1-3.2,0.7-4.2-0.7c-0.8-1.1-0.8-2.5,0-3.5l25.9-25.9l0,0V46.5L39,84.3
	c-1.3,1-3.2,0.7-4.2-0.7c-0.8-1.1-0.8-2.5,0-3.5l42-42V0c-2.5,0.1-5,0.2-7.5,0.5c-43,5-73.9,44-68.9,87c1.3,11.1,4.9,21.8,10.7,31.3
	l50.6,78c0,0,8,14.5,17.9,14.5s16.1-10.8,18.2-14.5l50.6-77.9C170.8,81.9,158.8,33.6,121.6,11.2C121.6,11.3,121.6,11.3,121.6,11.2z"
	/>
<path class="st3" d="M35.1,80.1c-1.3,1-1.6,2.8-0.7,4.2c1,1.3,2.8,1.6,4.2,0.7c0.3-0.2,0.5-0.4,0.7-0.7l37.8-37.8v38.7l0,0
	l-25.9,25.9c-1.3,1-1.6,2.8-0.7,4.2s2.8,1.6,4.2,0.7c0.3-0.2,0.5-0.4,0.7-0.7l21.7-21.7v36.1l-15,15c-1,1.3-0.7,3.2,0.6,4.2
	c1.1,0.8,2.5,0.8,3.6,0L77.1,138v38.8c0.3,1.6,1.8,2.8,3.4,2.5c1.3-0.2,2.3-1.2,2.5-2.5V138l10.8,10.8c1.3,1,3.2,0.7,4.2-0.7
	c0.8-1.1,0.8-2.5,0-3.5l-15-15V93.6l21.7,21.7c1.2,1.1,3,1.1,4.2,0c1.1-1.2,1.1-3,0-4.2L83,85.2l0,0V46.5l37.8,37.8
	c0.6,0.6,1.3,0.9,2.1,0.9c1.7,0,3-1.4,2.9-3.1c0-0.7-0.3-1.4-0.8-2l-42-42V0c-1,0-2,0-3,0s-2,0-3,0v38.1L35.1,80.1z"/>
</svg>
